<svg width="1024" height="1024" viewBox="0 0 1024 1024" fill="none" xmlns="http://www.w3.org/2000/svg">
<rect width="1024" height="1024" rx="192" fill="black"/>
<path d="M632.992 362.504C631.627 374.451 630.603 386.056 629.92 397.32C629.579 408.584 629.408 417.117 629.408 422.92C629.408 429.064 629.579 435.037 629.92 440.84C630.261 446.301 630.603 450.909 630.944 454.664H619.168C617.12 434.525 614.219 418.653 610.464 407.048C606.709 395.101 600.224 386.739 591.008 381.96C582.133 376.84 568.651 374.28 550.56 374.28H508.064C496.459 374.28 487.584 375.304 481.44 377.352C475.637 379.059 471.712 382.984 469.664 389.128C467.616 394.931 466.592 404.147 466.592 416.776V670.728C466.592 683.016 467.616 692.232 469.664 698.376C471.712 704.52 475.637 708.616 481.44 710.664C487.584 712.371 496.459 713.224 508.064 713.224H545.44C566.944 713.224 583.157 710.323 594.08 704.52C605.344 698.717 613.365 689.331 618.144 676.36C623.264 663.048 627.019 645.128 629.408 622.6H641.184C640.16 631.816 639.648 644.104 639.648 659.464C639.648 665.949 639.819 675.336 640.16 687.624C640.843 699.571 641.867 712.029 643.232 725C625.824 724.317 606.197 723.976 584.352 723.976C562.507 723.635 543.051 723.464 525.984 723.464C518.475 723.464 508.747 723.464 496.8 723.464C485.195 723.464 472.565 723.635 458.912 723.976C445.259 723.976 431.435 724.147 417.44 724.488C403.445 724.488 390.133 724.659 377.504 725V714.76C389.109 714.077 397.813 712.712 403.616 710.664C409.76 708.616 413.856 704.52 415.904 698.376C417.952 692.232 418.976 683.016 418.976 670.728V416.776C418.976 404.147 417.952 394.931 415.904 389.128C413.856 382.984 409.76 378.888 403.616 376.84C397.813 374.451 389.109 373.085 377.504 372.744V362.504C390.133 362.845 403.445 363.187 417.44 363.528C431.435 363.528 445.259 363.699 458.912 364.04C472.565 364.04 485.195 364.04 496.8 364.04C508.747 364.04 518.475 364.04 525.984 364.04C541.685 364.04 559.435 364.04 579.232 364.04C599.371 363.699 617.291 363.187 632.992 362.504ZM544.928 537.608C544.928 537.608 544.928 539.315 544.928 542.728C544.928 546.141 544.928 547.848 544.928 547.848H451.232C451.232 547.848 451.232 546.141 451.232 542.728C451.232 539.315 451.232 537.608 451.232 537.608H544.928ZM559.776 470.024C558.411 489.48 557.728 504.328 557.728 514.568C558.069 524.808 558.24 534.195 558.24 542.728C558.24 551.261 558.411 560.648 558.752 570.888C559.093 581.128 559.947 595.976 561.312 615.432H549.536C548.171 604.509 546.464 593.928 544.416 583.688C542.709 573.107 538.613 564.573 532.128 558.088C525.984 551.261 515.403 547.848 500.384 547.848V537.608C511.648 537.608 520.181 535.389 525.984 530.952C532.128 526.173 536.565 520.2 539.296 513.032C542.027 505.864 543.904 498.525 544.928 491.016C545.952 483.165 546.976 476.168 548 470.024H559.776Z" fill="white"/>
</svg>
