<svg width="180" height="180" viewBox="0 0 180 180" fill="none" xmlns="http://www.w3.org/2000/svg">
<path d="M117.92 45.04C117.6 47.84 117.36 50.56 117.2 53.2C117.12 55.84 117.08 57.84 117.08 59.2C117.08 60.64 117.12 62.04 117.2 63.4C117.28 64.68 117.36 65.76 117.44 66.64H114.68C114.2 61.92 113.52 58.2 112.64 55.48C111.76 52.68 110.24 50.72 108.08 49.6C106 48.4 102.84 47.8 98.6 47.8H88.64C85.92 47.8 83.84 48.04 82.4 48.52C81.04 48.92 80.12 49.84 79.64 51.28C79.16 52.64 78.92 54.8 78.92 57.76V117.28C78.92 120.16 79.16 122.32 79.64 123.76C80.12 125.2 81.04 126.16 82.4 126.64C83.84 127.04 85.92 127.24 88.64 127.24H97.4C102.44 127.24 106.24 126.56 108.8 125.2C111.44 123.84 113.32 121.64 114.44 118.6C115.64 115.48 116.52 111.28 117.08 106H119.84C119.6 108.16 119.48 111.04 119.48 114.64C119.48 116.16 119.52 118.36 119.6 121.24C119.76 124.04 120 126.96 120.32 130C116.24 129.84 111.64 129.76 106.52 129.76C101.4 129.68 96.84 129.64 92.84 129.64C91.08 129.64 88.8 129.64 86 129.64C83.28 129.64 80.32 129.68 77.12 129.76C73.92 129.76 70.68 129.8 67.4 129.88C64.12 129.88 61 129.92 58.04 130V127.6C60.76 127.44 62.8 127.12 64.16 126.64C65.6 126.16 66.56 125.2 67.04 123.76C67.52 122.32 67.76 120.16 67.76 117.28V57.76C67.76 54.8 67.52 52.64 67.04 51.28C66.56 49.84 65.6 48.88 64.16 48.4C62.8 47.84 60.76 47.52 58.04 47.44V45.04C61 45.12 64.12 45.2 67.4 45.28C70.68 45.28 73.92 45.32 77.12 45.4C80.32 45.4 83.28 45.4 86 45.4C88.8 45.4 91.08 45.4 92.84 45.4C96.52 45.4 100.68 45.4 105.32 45.4C110.04 45.32 114.24 45.2 117.92 45.04ZM97.28 86.08C97.28 86.08 97.28 86.48 97.28 87.28C97.28 88.08 97.28 88.48 97.28 88.48H75.32C75.32 88.48 75.32 88.08 75.32 87.28C75.32 86.48 75.32 86.08 75.32 86.08H97.28ZM100.76 70.24C100.44 74.8 100.28 78.28 100.28 80.68C100.36 83.08 100.4 85.28 100.4 87.28C100.4 89.28 100.44 91.48 100.52 93.88C100.6 96.28 100.8 99.76 101.12 104.32H98.36C98.04 101.76 97.64 99.28 97.16 96.88C96.76 94.4 95.8 92.4 94.28 90.88C92.84 89.28 90.36 88.48 86.84 88.48V86.08C89.48 86.08 91.48 85.56 92.84 84.52C94.28 83.4 95.32 82 95.96 80.32C96.6 78.64 97.04 76.92 97.28 75.16C97.52 73.32 97.76 71.68 98 70.24H100.76Z" fill="white"/>
</svg>
