<svg width="128" height="128" viewBox="0 0 128 128" fill="none" xmlns="http://www.w3.org/2000/svg">
<rect width="128" height="128" rx="24" fill="black"/>
<path d="M88.624 30.032C88.368 32.848 88.176 35.568 88.048 38.192C87.984 40.816 87.952 42.832 87.952 44.24C87.952 45.52 87.984 46.736 88.048 47.888C88.112 49.04 88.176 50 88.24 50.768H86.032C85.392 46.096 84.4 42.416 83.056 39.728C81.712 36.976 79.952 35.056 77.776 33.968C75.664 32.816 73.168 32.24 70.288 32.24H66.352C64.496 32.24 63.088 32.4 62.128 32.72C61.168 33.04 60.528 33.68 60.208 34.64C59.888 35.6 59.728 37.072 59.728 39.056V88.976C59.728 90.96 59.888 92.432 60.208 93.392C60.528 94.352 61.168 94.992 62.128 95.312C63.088 95.632 64.496 95.792 66.352 95.792H71.056C73.936 95.792 76.464 95.184 78.64 93.968C80.88 92.688 82.768 90.544 84.304 87.536C85.904 84.528 87.12 80.464 87.952 75.344H90.16C89.968 77.392 89.872 80.08 89.872 83.408C89.872 84.88 89.904 86.96 89.968 89.648C90.032 92.336 90.224 95.12 90.544 98C87.28 97.872 83.6 97.808 79.504 97.808C75.408 97.744 71.76 97.712 68.56 97.712C66.96 97.712 64.912 97.712 62.416 97.712C59.92 97.712 57.232 97.744 54.352 97.808C51.472 97.808 48.56 97.84 45.616 97.904C42.672 97.904 39.888 97.936 37.264 98V96.08C39.312 95.952 40.848 95.696 41.872 95.312C42.896 94.928 43.568 94.16 43.888 93.008C44.272 91.856 44.464 90.128 44.464 87.824V40.208C44.464 37.84 44.272 36.112 43.888 35.024C43.568 33.872 42.864 33.104 41.776 32.72C40.752 32.272 39.248 32.016 37.264 31.952V30.032C39.888 30.096 42.672 30.16 45.616 30.224C48.56 30.224 51.472 30.256 54.352 30.32C57.232 30.32 59.92 30.32 62.416 30.32C64.912 30.32 66.96 30.32 68.56 30.32C71.504 30.32 74.832 30.32 78.544 30.32C82.32 30.256 85.68 30.16 88.624 30.032ZM73.648 62.864C73.648 62.864 73.648 63.184 73.648 63.824C73.648 64.464 73.648 64.784 73.648 64.784H56.848C56.848 64.784 56.848 64.464 56.848 63.824C56.848 63.184 56.848 62.864 56.848 62.864H73.648ZM76.432 50.192C76.176 53.84 76.048 56.624 76.048 58.544C76.112 60.464 76.144 62.224 76.144 63.824C76.144 65.424 76.176 67.184 76.24 69.104C76.304 71.024 76.464 73.808 76.72 77.456H74.512C74.192 75.216 73.584 73.136 72.688 71.216C71.856 69.296 70.64 67.76 69.04 66.608C67.44 65.392 65.36 64.784 62.8 64.784V62.864C64.72 62.864 66.352 62.48 67.696 61.712C69.04 60.88 70.128 59.824 70.96 58.544C71.856 57.2 72.56 55.792 73.072 54.32C73.584 52.848 73.968 51.472 74.224 50.192H76.432Z" fill="white"/>
</svg>
